<svg width="25" height="24" viewBox="0 0 25 24" fill="none" xmlns="http://www.w3.org/2000/svg">
<path d="M21.1633 18.771C21.1633 18.771 20.0047 19.909 19.7207 20.2427C19.2582 20.7363 18.7132 20.9693 17.9988 20.9693C17.9301 20.9693 17.8568 20.9693 17.7881 20.9648C16.4279 20.8779 15.1639 20.3478 14.2159 19.8953C11.6238 18.643 9.34771 16.8652 7.45629 14.612C5.89461 12.7336 4.85044 10.9969 4.15891 9.13217C3.733 7.99415 3.57729 7.1075 3.64598 6.27113C3.69178 5.7364 3.89787 5.29308 4.27798 4.91374L5.83966 3.35526C6.06406 3.14502 6.30221 3.03076 6.53577 3.03076C6.82429 3.03076 7.05786 3.20443 7.20441 3.35069C7.20899 3.35526 7.21357 3.35983 7.21815 3.3644C7.49751 3.62491 7.76313 3.89456 8.04249 4.18249C8.18446 4.32874 8.33101 4.47499 8.47756 4.62581L9.72782 5.87351C10.2133 6.35797 10.2133 6.80586 9.72782 7.29032C9.59501 7.42286 9.46678 7.5554 9.33397 7.68337C8.94927 8.07642 9.25147 7.77483 8.85304 8.13132C8.84388 8.14046 8.83472 8.14503 8.83014 8.15417C8.43629 8.54722 8.50956 8.93113 8.592 9.19164C8.59658 9.20535 8.60116 9.21906 8.60573 9.23277C8.93089 10.0189 9.38886 10.7593 10.085 11.6413L10.0896 11.6459C11.3536 13.1998 12.6862 14.411 14.1563 15.3387C14.3441 15.4576 14.5364 15.5536 14.7196 15.645C14.8845 15.7272 15.0402 15.8049 15.173 15.8872C15.1913 15.8963 15.2097 15.91 15.228 15.9192C15.3837 15.9969 15.5302 16.0334 15.6814 16.0334C16.0615 16.0334 16.2996 15.7958 16.3775 15.7181L17.2752 14.8222C17.4309 14.6668 17.6782 14.4795 17.9667 14.4795C18.2506 14.4795 18.4842 14.6577 18.6262 14.8131C18.6308 14.8177 18.6308 14.8177 18.6353 14.8222L21.1587 17.3405C21.6305 17.8067 21.1633 18.771 21.1633 18.771Z" fill="white"/>
</svg>
